<svg width="81" height="80" viewBox="0 0 81 80" fill="none" xmlns="http://www.w3.org/2000/svg">
    <g id="event_busy">
        <path id="Vector"
            d="M32.8333 62.3332L28.1667 57.6665L35.8333 49.9998L28.1667 42.3332L32.8333 37.6665L40.5 45.3332L48.1667 37.6665L52.8333 42.3332L45.1667 49.9998L52.8333 57.6665L48.1667 62.3332L40.5 54.6665L32.8333 62.3332ZM17.1667 73.3332C15.3333 73.3332 13.7639 72.6804 12.4583 71.3748C11.1528 70.0693 10.5 68.4998 10.5 66.6665V19.9998C10.5 18.1665 11.1528 16.5971 12.4583 15.2915C13.7639 13.9859 15.3333 13.3332 17.1667 13.3332H20.5V6.6665H27.1667V13.3332H53.8333V6.6665H60.5V13.3332H63.8333C65.6667 13.3332 67.2361 13.9859 68.5417 15.2915C69.8472 16.5971 70.5 18.1665 70.5 19.9998V66.6665C70.5 68.4998 69.8472 70.0693 68.5417 71.3748C67.2361 72.6804 65.6667 73.3332 63.8333 73.3332H17.1667ZM17.1667 66.6665H63.8333V33.3332H17.1667V66.6665ZM17.1667 26.6665H63.8333V19.9998H17.1667V26.6665Z"
            fill="#D95353" />
    </g>
</svg>