<svg width="60" height="60" viewBox="0 0 50 50" fill="none" xmlns="http://www.w3.org/2000/svg">
    <g id="person_cancel">
        <path id="Vector"
            d="M36.2499 27.0833L33.3333 24.1666L37.6562 19.7916L33.3333 15.4687L36.2499 12.4999L40.6249 16.8749L44.9478 12.4999L47.9166 15.4687L43.5416 19.7916L47.9166 24.1666L44.9478 27.0833L40.6249 22.7603L36.2499 27.0833ZM18.7499 24.9999C16.4583 24.9999 14.4964 24.1839 12.8645 22.552C11.2326 20.9201 10.4166 18.9583 10.4166 16.6666C10.4166 14.3749 11.2326 12.4131 12.8645 10.7812C14.4964 9.14922 16.4583 8.33325 18.7499 8.33325C21.0416 8.33325 23.0034 9.14922 24.6353 10.7812C26.2673 12.4131 27.0833 14.3749 27.0833 16.6666C27.0833 18.9583 26.2673 20.9201 24.6353 22.552C23.0034 24.1839 21.0416 24.9999 18.7499 24.9999ZM2.08325 41.6666V35.8333C2.08325 34.6527 2.38707 33.5676 2.99471 32.578C3.60235 31.5885 4.40964 30.8333 5.41659 30.3124C7.56936 29.236 9.75686 28.4287 11.9791 27.8905C14.2013 27.3523 16.4583 27.0833 18.7499 27.0833C21.0416 27.0833 23.2985 27.3523 25.5208 27.8905C27.743 28.4287 29.9305 29.236 32.0833 30.3124C33.0902 30.8333 33.8975 31.5885 34.5051 32.578C35.1128 33.5676 35.4166 34.6527 35.4166 35.8333V41.6666H2.08325ZM6.24992 37.4999H31.2499V35.8333C31.2499 35.4513 31.1544 35.1041 30.9635 34.7916C30.7725 34.4791 30.5208 34.236 30.2083 34.0624C28.3333 33.1249 26.4409 32.4218 24.5312 31.953C22.6214 31.4843 20.6944 31.2499 18.7499 31.2499C16.8055 31.2499 14.8784 31.4843 12.9687 31.953C11.0589 32.4218 9.16658 33.1249 7.29158 34.0624C6.97908 34.236 6.72735 34.4791 6.53638 34.7916C6.3454 35.1041 6.24992 35.4513 6.24992 35.8333V37.4999ZM18.7499 20.8333C19.8958 20.8333 20.8767 20.4253 21.6926 19.6093C22.5086 18.7933 22.9166 17.8124 22.9166 16.6666C22.9166 15.5208 22.5086 14.5398 21.6926 13.7239C20.8767 12.9079 19.8958 12.4999 18.7499 12.4999C17.6041 12.4999 16.6232 12.9079 15.8072 13.7239C14.9912 14.5398 14.5833 15.5208 14.5833 16.6666C14.5833 17.8124 14.9912 18.7933 15.8072 19.6093C16.6232 20.4253 17.6041 20.8333 18.7499 20.8333Z"
            fill="#D95353" />
    </g>
</svg>