<svg width="71" height="80" viewBox="0 0 71 80" fill="none" xmlns="http://www.w3.org/2000/svg">
    <path id="Vector"
        d="M31.4167 65.4L17.6111 51.2L23.25 45.4L31.4167 53.8L47.75 37L53.3889 42.8L31.4167 65.4ZM8.27778 80C6.13889 80 4.30787 79.2167 2.78472 77.65C1.26157 76.0833 0.5 74.2 0.5 72V16C0.5 13.8 1.26157 11.9167 2.78472 10.35C4.30787 8.78333 6.13889 8 8.27778 8H12.1667V0H19.9444V8H51.0556V0H58.8333V8H62.7222C64.8611 8 66.6921 8.78333 68.2153 10.35C69.7384 11.9167 70.5 13.8 70.5 16V72C70.5 74.2 69.7384 76.0833 68.2153 77.65C66.6921 79.2167 64.8611 80 62.7222 80H8.27778ZM8.27778 72H62.7222V32H8.27778V72ZM8.27778 24H62.7222V16H8.27778V24Z"
        fill="#418C86" />
</svg>