<svg width="44" height="40" viewBox="0 0 34 30" fill="none" xmlns="http://www.w3.org/2000/svg">
    <path id="Vector"
        d="M0 29.2683V24.1463C0 23.1402 0.240833 22.1951 0.7225 21.311C1.20417 20.4268 1.87 19.7561 2.72 19.2988C4.165 18.5061 5.79417 17.8354 7.6075 17.2866C9.42083 16.7378 11.4183 16.4634 13.6 16.4634C14.45 16.4634 15.2788 16.5091 16.0863 16.6006C16.8938 16.6921 17.68 16.8293 18.445 17.0122L15.47 20.2134C15.1583 20.1524 14.8538 20.122 14.5563 20.122H13.6C11.5883 20.122 9.78208 20.3811 8.18125 20.8994C6.58042 21.4177 5.27 21.9817 4.25 22.5915C3.995 22.7439 3.78958 22.9573 3.63375 23.2317C3.47792 23.5061 3.4 23.811 3.4 24.1463V25.6098H14.025L17.425 29.2683H0ZM23.035 30L17.17 23.689L19.55 21.128L23.035 24.878L31.62 15.6402L34 18.2012L23.035 30ZM13.6 14.6341C11.73 14.6341 10.1292 13.9177 8.7975 12.4848C7.46583 11.0518 6.8 9.32927 6.8 7.31707C6.8 5.30488 7.46583 3.58232 8.7975 2.14939C10.1292 0.716463 11.73 0 13.6 0C15.47 0 17.0708 0.716463 18.4025 2.14939C19.7342 3.58232 20.4 5.30488 20.4 7.31707C20.4 9.32927 19.7342 11.0518 18.4025 12.4848C17.0708 13.9177 15.47 14.6341 13.6 14.6341ZM13.6 10.9756C14.535 10.9756 15.3354 10.6174 16.0013 9.90092C16.6671 9.18445 17 8.32317 17 7.31707C17 6.31098 16.6671 5.4497 16.0013 4.73323C15.3354 4.01677 14.535 3.65854 13.6 3.65854C12.665 3.65854 11.8646 4.01677 11.1988 4.73323C10.5329 5.4497 10.2 6.31098 10.2 7.31707C10.2 8.32317 10.5329 9.18445 11.1988 9.90092C11.8646 10.6174 12.665 10.9756 13.6 10.9756Z"
        fill="#418C86" />
</svg>