<svg width="101" height="100" viewBox="0 0 101 100" fill="none" xmlns="http://www.w3.org/2000/svg">
<g id="warning">
<path id="Vector" d="M4.66699 87.5002L50.5003 8.3335L96.3337 87.5002H4.66699ZM19.042 79.1668H81.9587L50.5003 25.0002L19.042 79.1668ZM50.5003 75.0002C51.6809 75.0002 52.6705 74.6009 53.4691 73.8022C54.2677 73.0036 54.667 72.014 54.667 70.8335C54.667 69.6529 54.2677 68.6634 53.4691 67.8647C52.6705 67.0661 51.6809 66.6668 50.5003 66.6668C49.3198 66.6668 48.3302 67.0661 47.5316 67.8647C46.733 68.6634 46.3337 69.6529 46.3337 70.8335C46.3337 72.014 46.733 73.0036 47.5316 73.8022C48.3302 74.6009 49.3198 75.0002 50.5003 75.0002ZM46.3337 62.5002H54.667V41.6668H46.3337V62.5002Z" fill="#FF775F"/>
</g>
</svg>
